<?xml version="1.0" encoding="UTF-8"?>
<svg viewBox="0 0 308.06 590.64" xmlns="http://www.w3.org/2000/svg">
 <path d="m230.66 27.648c2.7244 0.65084 5.234-0.69245 7.6838-0.64493 1.9382 0.035664 4.1585 0.73704 6.1911 0.8589 0.79774 0.050537 1.6046-0.16046 2.3448 0 2.9422 0.63601 6.0952 3.2127 7.8984 4.9454 0.89575 0.8589 2.3242 1.4533 2.7725 1.9318 0.5224 0.55576 0.79806 1.6078 1.4954 2.3657 0.67792 0.73113 1.5713 1.4295 1.9184 1.9348 1.5979 2.3062 2.8764 7.5369 2.9906 10.099 0.070251 1.593-0.6965 3.2603-1.0678 5.3733-0.44034 2.4935-0.46899 5.1861-1.2806 6.8771-0.64227 1.3344-2.1964 1.8188-2.1353 3.2246 1.8169 0.43092 2.5642 1.6435 2.7752 3.2246 1.3682 10.194-9.9886 14.616-12.804 21.49 1.7141 2.6421 3.6408 5.0731 5.3355 7.736 9.5447 6.363 19.002 12.812 28.813 18.911 1.6891 2.3657 2.7646 4.8532 4.0522 7.953 0.69888 1.6792 1.169 3.5723 1.9219 5.1564 1.0179 2.1398 2.6701 3.8636 3.4159 5.8043 0.43356 1.1353 0.25504 2.443 0.63867 3.6526 0.35507 1.1204 1.0318 2.4905 1.4943 3.6555 1.2416 3.1176 2.3552 5.7894 3.4147 8.5949 0.69266 1.8397 0.90222 3.819 1.4954 5.5873 0.18887 0.57356 0.84998 0.97183 1.0654 1.5068 0.35123 0.87378 0.11807 1.804 0.42499 2.5767 0.67587 1.691 2.4733 3.3791 3.4147 5.3733 0.79688 1.6821 1.697 3.7031 2.1368 5.1563 1.0418 3.4505-0.56668 5.3288-1.9184 7.5221-0.52826 5.9558 0.66702 11.698 0 16.334-0.12689 0.86487-0.86768 1.7089-1.0684 2.5797-0.7673 3.281-0.99753 5.5516-1.7118 8.164-1.3134 2.752-2.4762 5.6527-3.6255 8.5979-1.1277 2.8828-2.6149 5.4892-3.8438 8.3809-1.3246 3.1265-1.9252 6.5562-2.7725 9.8877-0.92822 3.6407-2.8315 7.1119-2.9894 11.175-0.093262 2.5054 0.74258 4.8889 0.42883 7.3051-0.14755 1.1383-0.82547 2.2349-1.0663 3.4415-0.66406 3.3226-0.058746 5.2782-1.9243 7.0881-0.31937 0.53793-1.4099 0.29721-1.7062 0.86487-1.7304 1.584-2.1132 4.2737-3.4147 6.2292-0.50378 0.75485-1.4919 0.9837-1.7064 1.9317 3.4035 7.8252 7.1859 14.248 10.243 22.138 0.7945 2.0447 2.277 4.1429 2.1353 6.6602-2.1191 1.697-4.744 3.9052-7.6827 5.1593-3.5476 1.5127-8.8152 1.9139-11.1 4.5114-0.070221 1.1502-0.33319 2.1012-0.85089 2.7966-1.6657 0.42798-1.8192-2.2527-3.4147-2.5796-0.98572 1.9585 0.4935 3.2573 0 4.7284-0.93851 2.7874-6.0582 2.5945-8.3272 4.5123-0.1936 2.799-1.0548 5.8441-1.4895 7.7366-0.45187 1.9502-0.1048 3.9135-0.42767 6.0194-0.15552 0.9971-0.70212 2.0141-0.85413 3.0091-0.40375 2.6225-0.051941 5.2797-0.42795 7.9452-0.17297 1.234-0.68234 2.4367-0.85175 3.6546-0.3887 2.7826-0.054321 5.6152-0.42798 8.3818-0.18326 1.3537-0.77914 2.6911-0.85411 4.0829-0.057556 1.0577 0.25468 2.1386 0.21428 3.2228-0.13135 3.5316-1.0501 7.5205-1.494 10.1-1.4226 8.2659 0.45895 16.785-0.42764 24.287-0.22017 1.8715-0.93262 3.6255-1.0654 5.5864-0.26265 3.8008-0.6974 7.3556-1.0675 10.102-0.4725 3.4885-0.065521 6.9505-0.42883 10.315-0.12572 1.1727-0.87271 2.445-0.85205 3.6534 0.011505 0.75934 0.63423 1.738 0.85205 3.0079 0.41171 2.3684 0.0242 5.6051 0.42883 7.7375 0.22255 1.1808 0.93736 2.0432 1.0675 3.0082 0.3046 2.2925-0.14401 4.9849 0 7.5238 0.11423 2.0328 0.80366 3.9182 1.0654 5.8022 0.46219 3.3042 0.65579 8.4609 0.42764 11.605-0.18326 2.5401-0.72159 3.1102 0.64105 4.5138 1.2936 1.3338 2.4591 2.4171 3.4136 3.8659 3.8796 2.1116 6.2589 5.7359 8.3225 9.6726-0.13251 3.3099 2.0684 5.093 1.2809 8.3821-2.1489 0.74179-4.2438 3.1321-7.0452 3.6522-3.9507 0.7359-8.2615-0.53879-12.804 0-2.1846-1.5719-4.9733-1.6081-7.0405-3.0079-2.0453-1.3873-2.9478-4.0273-5.1233-5.157-2.4178-0.50375-5.0347-0.80334-7.6806-1.0773-2.6364-2.0037-5.7714-3.5025-8.3249-5.5852-0.33882-2.2545 0.41614-4.4499 0.63985-5.8045 0.11186-0.67343-0.33557-1.6114-0.21338-2.1467 0.15349-0.67224 0.75288-1.0087 0.85559-1.7216 0.16824-1.2143 0.44391-3.2912 0.20985-4.726-0.1523-0.94153-0.94325-1.6973-1.2785-2.5785-0.48875-1.2794-1.1277-2.8908-1.2809-3.8704-0.28363-1.8183 0.54422-3.021 0.85413-4.9421 0.8925-5.5388-0.84026-13.506-0.85413-20.2-0.00592-2.9301 0.71246-5.8592 0.85413-8.8137 0.29187-6.2075 0.21809-11.88-0.64192-17.838-0.42796-2.964-0.20306-6.0218-0.63985-9.0262-0.16028-1.0982-0.68709-2.0956-0.85327-3.2228-0.43559-2.9848 0.13608-6.0762-0.42645-9.2419-0.1638-0.91269-0.71835-1.8367-0.85324-2.7922-0.3884-2.7315-0.092072-5.584-0.2122-8.3842-0.46898-10.662-0.63632-21.825-0.21545-31.16 0.050781-1.091 0.34-2.1291 0.21545-3.2237-0.34471-2.9824-2.2492-5.8488-2.5638-8.3786-0.36656-2.9557 0.14873-6.4106 0-9.6693-0.26181-5.7882-1.9034-11.278-1.0652-17.409 0.47723-3.504 3.8055-6.788 2.3472-10.53-3.1358 7.6172-4.2647 16.084-7.0431 24.283-0.48166 1.4236-0.77002 2.8976-1.2806 4.515-0.23404 0.73822-0.84764 1.3757-1.0678 2.1475-0.80217 2.8317-1.7339 6.6221-2.3484 9.0285-0.242 0.94983-0.17294 2.0712-0.42647 3.007-0.188 0.69516-0.69061 1.3047-0.85207 1.9318-0.45183 1.7365-0.097977 3.4885-0.42764 5.3727-0.16379 0.9436-0.69975 1.8596-0.85323 2.7943-0.49791 3.0126 0.083221 6.1077-0.42767 9.2386-0.19005 1.1585-0.71008 2.2661-0.85292 3.4421-0.32762 2.6828 0.070236 5.4075-0.42679 7.9488-0.70331 3.5931-1.4527 6.9784-2.135 10.532-0.40108 2.0884 0 4.3102-0.42558 6.4477-0.18535 0.92068-0.69623 1.7261-0.85413 2.5796-0.31934 1.711-0.013885 3.3051-0.2122 5.1579-0.14166 1.3026-0.82314 2.6899-1.0675 4.0829-0.32967 1.8447-0.078537 3.7649-0.42883 5.3718-0.20514 0.95312-0.92822 1.8319-1.0643 2.7919-0.11391 0.79175 0.17413 1.5918 0 2.3648-0.19006 0.81726-0.85411 1.5011-1.0675 2.3648-0.28686 1.1609-0.079376 2.4356-0.42883 3.6546-0.17975 0.62796-0.68353 1.2747-0.85411 1.9353-0.70332 2.7503-0.87627 5.7326-1.7053 8.3806-0.24556 0.77655-0.8795 1.3793-1.0675 2.1478-0.16702 0.67911 0.12929 1.4477 0 2.1487-0.14638 0.78818-0.82991 1.4836-1.0687 2.3636-0.31935 1.19-0.13725 2.6028-0.42531 3.6558-0.21811 0.77774-0.84528 1.3629-1.069 2.1466-0.14963 0.52695 0.10863 1.2292 0 1.7205-0.1635 0.74744-0.86444 1.4162-1.0663 2.1499-0.67793 2.445-0.89812 5.0836-1.4928 7.5205-0.52919 2.1592-1.8942 5.4295-2.3475 7.3081-0.24202 1.003 0.01181 2.1627-0.21309 3.2225-0.18092 0.83838-0.83583 1.6057-1.0663 2.5797-0.3102 1.2886-0.10507 2.8153-0.42914 4.0829-0.22459 0.88-0.86208 1.5279-1.0675 2.3615-0.51884 2.1256-0.59381 4.3697-1.2821 6.2364-0.34795 0.95432-1.5008 1.6067-1.7062 2.7919-0.20866 1.2064 0.33676 3.8404 0.42766 6.0182 0.093567 2.2501-0.085297 4.1248 0.21338 5.373 0.46692 1.9582 1.5586 5.0256 2.3472 6.4477 0.11067 2.7862 1.1655 5.2102-0.64104 6.8762-1.0132 0.9332-2.9074 1.0646-4.6944 1.7205-1.599 0.58402-3.3398 1.6242-4.909 1.7193-2.9097 0.17416-6.7247-0.70584-10.035-1.075-3.6555-0.41101-7.1697-0.92874-10.248-1.0753 0.63278-4.6553-0.65726-9.48 0.42648-13.969 0.2063-0.85446 0.9279-1.6881 1.0663-2.5808 0.24908-1.5731-0.21901-3.5744-0.2131-5.5852 0.006805-1.7484 0.68826-3.6186 0.42883-4.9433-0.27092-1.3698-1.9485-3.2819-2.7784-4.7296-1.0123-1.7633-1.854-3.1717-2.3475-5.1566 1.8124-2.712 0.55574-6.1136 1.2797-9.0265 0.17087-0.67673 0.71483-1.2548 0.85678-1.9339 0.92348-4.4407 0.75377-9.2981 1.7074-13.752 0.17856-0.83691 0.67909-1.5128 0.85323-2.3672 0.32376-1.5775 0.087372-3.3319 0.42883-4.943 0.19923-0.94626 0.88985-1.8426 1.0675-2.7933 0.22488-1.206-0.02774-2.4576 0.2122-3.6522 0.17502-0.87405 0.69858-1.6914 0.85411-2.5797 0.91553-5.195 1.0516-10.843 1.7097-16.333 1.3892-1.7924 0.76086-4.7492 1.2821-7.3068 1.3063-6.45 3.1692-14.314 3.8412-20.845 1.7386-5.0012 2.2345-10.446 3.8427-15.474 0.24792-0.77182 0.89455-1.3454 1.0675-2.1499 0.17885-0.82889-0.1579-1.7912 0-2.5785 0.31935-1.587 1.8402-2.8023 1.4943-4.5123 2.2294-4.0924 3.7916-10.388 3.8435-16.762 0.062271-7.5518-1.3904-16.035 0-22.78 0.25826-1.2494 0.92468-1.9122 0.85326-3.0088-0.068176-1.0877-0.72752-1.7029-0.85326-2.5797-0.39311-2.758 0.80484-3.9141 1.0687-5.8013 0.3403-2.4548-0.63396-4.8651-1.0687-7.736-0.4852-3.2067-0.69504-7.9232 0-11.178 0.30223-1.4146 1.0607-2.4905 1.0687-3.8695 0.005905-1.7089-0.64223-3.3969-0.64223-5.1563 0-3.5277 0.69655-7.1565 0.85324-10.747 0.36893-8.3958-0.93262-17.065 0-25.571 1.079-2.6391 1.5887-5.8518 2.563-8.595 0.82314-1.4681 2.0152-2.9244 3.2002-4.5144 1.0516-1.4147 2.6471-3.3821 2.9882-4.9454 0.97188-4.455-1.0088-8.5593 0.21336-12.892-3.5841-1.8813-8.2074-4.3807-5.55-10.102-2.1453-6.6275-0.15553-16.185 0.42914-22.566 0.19006-2.0952 1.0985-4.6065-0.21576-6.4462-1.0905 1.0075-0.87625 2.6213-1.0652 3.8695-2.8259 18.376-7.1181 36.817-9.8203 55.231-0.45541 3.0998-0.65373 6.5383-1.494 9.4568-0.19389 0.67166-0.73784 1.2393-0.85559 1.9318-0.16704 0.99262 0.093552 2.0507 0 3.0106-0.36656 3.8576-1.9839 8.6484-2.5615 11.82-0.22017 1.2155-0.024185 2.4222-0.21338 3.6526-0.24202 1.5751-1.0492 3.1265-1.2797 4.7254-0.26414 1.8188-0.050751 3.6436-0.42883 5.3763-0.59264 2.7223-1.4816 6.2352-1.9207 8.8089-0.65373 3.8487-0.85649 8.265-1.7097 11.82-0.2249 0.9451-0.8922 1.6732-1.0663 2.5797-0.57758 3.0195-0.93263 6.2678-1.2797 9.4568-0.31934 2.9006-0.62717 6.4373-1.4943 9.2428-0.19923 0.63898-0.72281 1.0937-0.85649 1.7178-0.81634 3.7818-0.7287 7.9473-1.494 11.819-0.13841 0.7002-0.69063 1.406-0.85442 2.1514-0.35623 1.6103-0.071426 3.3922-0.42529 4.9418-0.14993 0.64435-0.68501 1.291-0.85796 1.9342-1.0386 3.9194-0.87715 8.0882-1.705 12.032-0.17857 0.83688-0.68591 1.5927-0.85443 2.3636-0.34235 1.5615-0.15671 3.1158-0.42883 4.7284-0.5209 3.101-1.5884 7.3847-2.1326 10.101-0.27684 1.3781-0.14993 2.7351-0.42766 4.0841-0.71246 3.4573-1.7109 6.8542-2.3475 10.315-0.2615 1.4224 0.043961 2.8956-0.2131 4.299-0.19949 1.0877-0.8913 2.1547-1.0663 3.2216-0.59973 3.6211-0.74139 7.3592-1.4943 10.962-0.68236 3.2576-1.7144 6.4325-2.3484 9.6693-0.2904 1.486-0.11539 3.2076-0.42766 4.7296-0.2063 1.0102-0.74492 1.8423-0.85205 2.7933-0.13016 1.1609 0.18564 2.3101 0 3.4386-0.15672 0.95786-0.83818 1.8922-1.0663 2.7942-0.35977 1.4141-0.25942 3.2308-0.64103 4.7284-0.21782 0.8476-0.68826 1.5267-0.8556 2.3639-0.74463 3.7741-0.63985 7.8534-1.4916 11.606-0.40021 1.7508-1.5819 3.476-1.2821 5.8001 0.65372 1.1365 1.4721 0.43066 1.7074 1.7217 0.22961 1.2491-1.2452 2.3577-1.4928 3.2248-0.31727 1.1029-0.002357 2.2685-0.21456 3.2228-0.28245 1.2702-0.94296 2.092-1.0663 3.224-0.10389 0.95548 0.15435 1.9502 0 3.0079-0.16262 1.1424-0.85885 2.1871-1.0687 3.2228-0.31727 1.5763-0.064629 3.2424-0.42322 4.7296-0.18327 0.75577-0.70448 1.4013-0.8553 2.1487-1.0896 5.4019 0.071419 11.112 1.7062 14.613 0.59589 1.2723 1.0964 2.7574 1.7074 3.8695 1.3626 2.4738 3.8542 5.0176 5.3366 7.95 0.38516 0.76495 0.66878 1.5519 1.0652 2.3648 0.41289 0.8461 0.73784 1.5276 1.2821 2.3624 0.94208 1.4476 2.3702 3.2124 2.7752 4.5147 1.035 3.3506-0.45097 6.3318-1.0678 9.6717-0.20866 1.1296-0.029816 2.5633-0.2119 3.8707-0.29425 2.072-1.2511 3.8635-1.069 5.1555 0.33557 2.3872 3.5753 3.764 3.415 6.6625-1.0663 0.35785-2.2008 0.64795-3.415 0.85925-1.5436 1.8099-3.243 3.4665-4.6956 5.3727-2.7772 1.2978-5.8207 1.9898-8.7502 3.4386-3.2858 1.6265-6.0816 4.5661-9.6034 6.0182-3.6857 1.5187-8.3273 2.3128-12.805 3.6526-4.2057 1.2607-8.5277 2.9253-12.806 3.6543-4.5433 0.77454-9.3198 1.5883-14.084 2.3627-4.6968 0.76617-9.5539 1.8052-14.298 2.1487-13.475 0.97302-27.229-0.72546-41.619 0-3.952-1.3174-7.6032-2.9452-8.5359-7.3069 5.8128-3.2424 13.234-4.8701 19.635-7.5226 1.4642-2.6064 5.6272-2.4994 7.2574-4.9397 2.3403-0.29388 3.7721-1.5024 4.6935-3.2264 1.5344-0.39465 2.5916-1.3825 4.0558-1.9329 0.83701-0.31683 1.8906-0.23102 2.7737-0.64557 1.6843-0.78815 2.8188-2.8989 4.268-4.2977 1.8434-1.7808 4.8686-3.8669 7.472-4.5124 1.659-0.41339 3.3997-0.19739 4.9075-0.85797 0.70095-0.30646 1.3744-0.99591 2.1341-1.5057 0.7402-0.49805 1.7363-0.83362 2.3472-1.291 0.84734-0.63275 1.29-1.6834 2.135-2.3612 3.2742-2.6377 6.4112-4.6892 10.671-6.0207 1.8502 0.21256 2.7312 1.4058 4.481 1.7192 0.92584-4.9967 1.7236-11.446 2.9883-15.473 0.94768-3.0207 2.0302-3.7637 4.6944-5.8022 1.6165-1.2375 3.1647-2.9336 4.2691-3.6522 0.52918-0.34714 1.3039-0.32159 1.7074-0.6467 0.61004-0.49219 0.89249-1.4429 1.4931-1.933 1.6395-1.3442 3.6051-2.1802 5.1233-3.4397 1.854-1.5371 2.964-3.7358 4.6947-5.1558 0.7275-3.0623 3.304-5.1766 2.5603-9.0273 0.47517-0.59772 0.63985-1.1457 0.85442-1.9363 1.0584-3.9182 1.1401-8.7405 1.9219-13.107 0.75053-1.6254 1.3603-3.0623 1.2773-4.9453-0.048401-1.176-0.92465-2.1119-0.63867-3.224 0.31344-1.2028 2.3401-1.5766 2.776-2.7898 0.52238-1.4673 0.094444-3.2692 0.42529-4.7308 0.56961-2.5178 1.7339-4.9142 1.2797-7.9512 2.0592-4.2766 1.6811-9.2164 2.563-13.753 0.20068-1.0378 0.89455-1.9725 1.0663-3.0091 0.19479-1.1828-0.019485-2.497 0.21338-3.6546 2.0338-10.155 4.2922-21.449 6.1875-31.375 0.22579-1.1808 0.025383-2.4822 0.21427-3.6534 0.19155-1.1715 0.86711-2.3847 1.0678-3.6522 0.2674-1.6961 0.01712-3.4609 0.42648-4.9445 0.18327-0.66275 0.71364-1.2723 0.85532-1.9354 0.278-1.3162-0.026566-2.7467 0.21219-4.084 0.60179-3.3551 1.5448-6.8052 2.1338-10.314 0.24348-1.4441 0.056671-3.0882 0.42795-4.5147 0.16705-0.64789 0.69623-1.2551 0.85295-1.933 0.87271-3.7964 0.90517-7.7886 1.7074-11.604 0.22134-1.0577 0.87627-1.9841 1.0678-3.0068 0.22932-1.2423-0.005905-2.5996 0.21426-3.8683 0.18683-1.1097 0.85207-2.1443 1.0654-3.2264 1.1584-5.8681 1.6221-11.931 2.5615-17.836 0.65137-4.0894 2.0302-7.9975 2.7764-12.036 0.66611-3.6139 0.89809-7.4983 1.494-11.172 0.51532-3.1919 1.5923-6.7018 2.133-9.0288 0.36185-1.5395 0.3031-3.3197 0.64192-4.9424 2.3381-11.207 3.7999-23.226 5.9801-34.814 0.82548-4.3955 2.0612-9.1388 2.3472-13.323 0.093552-1.3671 1.0179-2.752 1.2821-4.0835 0.82194-4.1578 0.90724-8.8773 1.9231-12.895 0.19478-0.77269 0.70419-1.4176 0.85056-2.1487 0.50499-2.5054 0.67117-5.2842 1.0678-7.953 0.38721-2.6005 1.229-5.2663 1.4952-7.736 0.10477-0.96588-0.16379-2.0477 0-3.0076 0.25235-1.4622 1.9057-2.5975 0.85445-4.2974-1.4031 0.94803-1.7803 2.9363-4.4826 2.5767-3.8078 7.632-11.888 10.961-17.724 16.548-2.3667 0.55872-5.4462 2.3122-8.3225 1.0758-0.58792-0.25261-1.9287-1.3314-2.5594-2.1517-1.0005-1.2869-3.3468-6.0628-3.6293-7.5191-0.75053-3.8784 1.7767-7.1832 1.0654-10.961-0.16852-0.90643-0.90282-1.7564-1.0654-2.5796-1.306-6.6275 3.0449-10.604 4.4814-14.182-2.7923-3.7803-5.6687-7.4745-8.3237-11.392 0.53832-1.1056 1.6923-1.593 2.5638-2.3627 0-0.57362-0.082939-1.2274 0.21102-1.5068 1.4618-0.74596 2.2829-2.1398 3.415-3.2216 4.9642-7.8965 12.764-12.94 18.57-19.986 0.67557-0.3269 1.4978-0.49931 2.1365-0.86187 0.87833-3.7001 4.6944-4.4431 6.1908-7.522 3.0724-1.5632 4.2541-5.0316 7.2621-6.6602 0.90605-0.12781 0.1579 1.4147 1.0639 1.2898 0.62956-0.65978 0.62601-1.9526 1.2833-2.5796 2.1191-0.58844 2.4682-2.9601 4.268-3.8665 4.3842-0.17239 6.7881-2.336 9.1778-4.5144-0.50703-2.8382 1.0008-6.0658 1.7065-9.8877 0.53596-2.8917 0.27417-6.1668 0.85294-9.0258 0.099167-0.48738 0.63307-1.1442 0.85561-1.9348 0.68117-2.4281 0.56842-5.1296 1.7062-6.0152 1.8481-1.4414 5.5766-0.41605 6.8297 1.5038 1.0362 4.6244-0.3046 8.3334-1.0655 12.248-0.89218 4.5768-1.9343 8.8238-2.3484 12.464 3.1441-0.42203 6.0007-3.0879 9.177-3.8665 3.2731-0.80245 6.3375-0.51712 8.9624-2.3627 0.45892-0.54385 0.57315-1.4325 1.0675-1.9348 2.1513-0.1991 2.8085-1.899 4.2691-2.7936 0.10036 1.2601-0.20984 2.9333 1.0664 3.0076 0.14432-1.4147-0.21663-3.29 0-4.0805 1.7041-1.2958 3.4058-2.5886 4.056-4.9454-3.3551-3.4891-6.6512-13.371-4.056-19.556 0.83256-1.9852 3.2615-3.29 5.3378-3.8695-1.6566-13.427 6.1979-20.774 14.723-25.36zm36.921 140.77c1.2588 8.0956 4.5675 16.696 4.2691 25.788-0.077301 2.434-0.83701 4.2053-1.4907 6.8771-0.85324 3.4623-3.008 6.25-3.8451 9.4568-0.39514 0.74594-1.5978 0.68352-2.135 1.2898-0.25351 1.8248 0.25473 3.1384 0.21576 4.7284-0.070526 2.6896-1.6613 5.1058-1.4943 7.308 0.071411 0.95401 0.82666 1.4414 1.0652 2.3598 0.17413 0.6568-0.15674 1.5484 0 2.3657 0.18561 0.96292 1.0781 1.8426 1.2809 2.7937 0.25497 1.168-0.065521 2.541 0.21454 3.6555 0.34238 1.3582 1.6301 2.6094 1.0663 5.1564 6.47-3.0849 7.5537-11.594 11.954-16.762 0.73904-3.8576 3.2937-7.5339 3.6269-12.25 0.39551-5.614-0.52679-12.209 0.42563-17.838 0.22931-1.3523 0.92554-2.6361 1.0675-3.8695 0.21191-1.8218-0.14993-3.8249 0.21426-5.3733 0.52682-2.2349 0.59738-3.4802-1.4952-5.5873-3.2453-3.2662-7.5088-5.9083-10.243-9.2398-0.89368-1.0907-0.7886-2.6094-2.3472-3.0106-0.8866-0.18134-1.5161 1.5811-2.3496 2.1517zm-171.6 327.09c-1.1968-0.31323-2.8546-0.084717-3.2005 1.075-2.1489-0.37357-2.436 1.1296-3.8412 1.5047 0.19923 5.3575-1.885 8.419-1.7097 13.756 5.4414 1.2351 11.825-1.1864 16.862-1.075-0.13841-4.5114 2.3552-7.5146 1.4928-12.036 0.57198-1.2874 1.795-3.723 1.0675-4.9409-0.88187-0.17297-1.0941 0.3284-1.0675 1.0726-0.87508-0.24249-0.049583-0.95071-0.2122-1.7216-3.3191-0.96231-6.6347-0.12988-8.7514 1.2934-0.77119-0.2077-0.21664 0.92636-0.63985 1.0726zm188.25-327.51c-1.2646 1.198-0.56253 3.1868-0.85294 4.9433-0.19037 1.1492-0.88895 2.1986-1.0655 3.4362-0.4241 2.9312 0.24792 6.0889-0.42764 8.5967 5.053 2.6468 9.4559 5.9508 15.154 7.9536 1.3095-1.4524 0.6434-3.5271 0.85089-5.3739 0.29748-2.6052 1.9196-5.2568 1.282-8.381-0.88776-1.184-2.3106-1.8307-2.7752-3.4397-3.552-1.1237-4.3164-6.2283-7.8949-7.3068-1.3579-0.40865-2.6515 0.2984-4.2703-0.42827"/>
 <rect x="282.03" y="165.6" width="19" height="34" stroke-width="null"/>
</svg>
