<?xml version='1.0' encoding='utf-8'?>
<svg xmlns="http://www.w3.org/2000/svg" version="1.1" width="600px" height="976px" viewBox="0 0 600 976"> <g id="layer1"> <g style="fill:rgb(0,0,0); fill-opacity:1.0; stroke-linejoin: miter"> <path d="M174.20021,667.6471C174.25008,667.6471,174.30063,667.65857,174.34795,667.6826C175.16687,668.0989,176.03267,668.5373,176.90788,669.589C177.72551,670.5715,178.54948,672.0899,179.35338,673.5914L186.2509,672.312C186.27068,672.30835,186.29059,672.3065,186.31041,672.3065C186.38138,672.3065,186.45103,672.3298,186.50835,672.3734C188.96996,674.2497,191.37099,676.0745,194.19232,676.8445C195.554,677.2161,197.01941,677.34375,198.54724,677.34375C200.19067,677.34375,201.90633,677.19604,203.64284,677.04553C203.6523,677.04474,203.66173,677.0443,203.6711,677.0443C203.79024,677.0443,203.90094,677.1095,203.95827,677.21564C204.02013,677.33014,204.00806,677.47046,203.92757,677.5727L189.63611,695.73065C189.57391,695.8097,189.47919,695.8552,189.37971,695.8552C189.3698,695.8552,189.35982,695.85474,189.34981,695.8538C188.59389,695.78467,187.85074,695.71716,187.08012,695.71716C186.35019,695.71716,185.59563,695.7777,184.78227,695.9549C183.09532,696.32227,181.14513,697.19226,179.15132,698.0834C179.10902,698.1023,179.06358,698.1118,179.01808,698.1118C178.98045,698.1118,178.94278,698.1053,178.90675,698.0922C174.36458,696.4441,169.80266,694.78906,166.86383,693.4526C163.90776,692.1083,162.58458,691.08215,161.27333,690.06445C161.14403,689.9641,161.10902,689.7835,161.19144,689.6421L173.91795,667.8092C173.97835,667.70557,174.08752,667.6471,174.20021,667.6471 Z M222.42015,604.037C222.79692,604.2956,223.34567,604.6427,224.05016,605.0664C225.04077,605.6622,226.27579,606.37524,227.61726,607.14984C229.19998,608.0637,230.92879,609.0619,232.56807,610.0477C233.34322,610.5139,234.09914,610.97784,234.81062,611.4291C240.01239,614.7283,242.81923,617.3389,245.5815,619.9287L245.58324,619.9287C245.61682,619.93677,245.6497,619.9504,245.68057,619.9698C245.83324,620.06573,245.87923,620.2673,245.78328,620.4199L243.27373,624.4135L243.81056,624.9992C243.91771,625.11615,243.92534,625.29315,243.82864,625.4188L223.1583,652.289C223.09521,652.37103,222.9988,652.4165,222.89948,652.4165C222.8627,652.4165,222.82553,652.4103,222.7895,652.39734L222.78944,652.39734C222.17218,652.1766,221.60567,651.97614,221.08147,651.9269L221.08148,651.9269C221.00282,651.9195,220.92555,651.9155,220.84962,651.9155C220.35585,651.9155,219.91933,652.08356,219.53476,652.57117C218.62952,653.7189,218.03235,656.53217,217.41403,659.5016L217.41402,659.5016L217.40967,659.52246C217.38977,659.61804,217.32814,659.6997,217.24165,659.74506C213.52736,661.69244,209.77483,663.6613,206.28961,664.69635C202.95062,665.68787,199.8669,665.81995,196.83261,665.9139L196.83385,665.9139C196.77727,665.9544,196.71066,665.9747,196.64404,665.9747C196.58383,665.9747,196.52362,665.9581,196.47081,665.92505L196.46957,665.92505C196.44919,665.92566,196.4288,665.9263,196.40843,665.9269C196.40504,665.927,196.40167,665.92706,196.3983,665.92706C196.22261,665.92706,196.07758,665.78735,196.07219,665.61053C196.0715,665.58777,196.07315,665.5654,196.07693,665.5438L196.07819,665.5438C191.73985,661.20337,187.44075,656.89545,185.18303,654.35284C184.03525,653.06024,183.41277,652.22156,182.90746,651.54065C182.55951,651.0718,182.27429,650.68774,181.91118,650.2789L181.91116,650.2789C181.7342,650.0796,181.5381,649.8737,181.30711,649.6497C179.90126,648.28674,177.23415,646.28064,174.53732,644.25305C174.3932,644.1447,174.36421,643.94006,174.47256,643.79596C174.50577,643.7518,174.54802,643.71844,174.5948,643.69653L174.59583,643.69653L175.06711,642.0709C175.10802,641.92993,175.23705,641.8354,175.38036,641.8354C175.39528,641.8354,175.41039,641.83636,175.42554,641.8385C175.84508,641.89667,176.20634,641.9405,176.50931,641.9405C177.04688,641.9405,177.40092,641.8026,177.57149,641.36273C177.90974,640.49036,177.63611,638.5122,177.32529,636.3596C177.30972,636.25183,177.34895,636.1434,177.42987,636.0705C177.49054,636.0158,177.56865,635.9865,177.64845,635.9865C177.6751,635.9865,177.70193,635.9898,177.72838,635.99646C179.4107,636.4214,181.06279,636.83795,183.29137,636.88586C183.42917,636.8888,183.5671,636.8903,183.70473,636.8903C185.97809,636.8903,188.17003,636.4818,188.37984,635.5006C188.62495,634.3542,186.57869,632.12915,184.21223,629.62695C184.12935,629.53937,184.10155,629.41315,184.13992,629.29877C185.19576,626.1529,186.21251,623.1026,185.71916,620.038C185.22751,616.9841,183.22096,613.86414,179.74986,611.1606C179.0042,610.5798,178.1921,610.0192,177.33743,609.506C174.79286,607.9779,171.90996,606.8919,169.28282,606.8919C168.67134,606.8919,168.07373,606.95074,167.49745,607.07654C163.60081,607.9269,160.55664,611.8483,157.41106,615.9338L157.41104,615.9338L157.4004,615.94763C157.36574,615.9926,157.31996,616.02783,157.26756,616.04974C156.04836,616.55914,155.0907,616.9885,154.868,617.64996C154.64058,618.32544,155.1267,619.3629,155.74652,620.6169C155.7919,620.7087,155.79156,620.8165,155.74562,620.908C154.82973,622.7327,153.95311,624.4888,153.92445,626.7419C153.91475,627.50433,154.00226,628.3313,154.13524,629.1627C154.27895,630.0614,154.47382,630.95416,154.65134,631.767C154.79572,632.4281,154.92981,633.0416,155.01126,633.5509C155.2916,635.30396,154.95245,635.86896,154.5891,636.41785C154.58423,636.42523,154.57906,636.4324,154.57362,636.43933L152.58147,638.976C152.51704,639.05804,152.42125,639.1009,152.32448,639.1009C152.29971,639.1009,152.27489,639.0981,152.2505,639.0924L152.24971,639.0924L149.157,639.8846C149.13542,639.89014,149.11333,639.89343,149.09106,639.8945C147.43996,639.97076,145.8199,640.0464,143.96632,640.50183C142.32048,640.9062,140.485,641.6111,138.6075,642.3594L138.60817,642.3594C138.65022,642.48236,138.61601,642.62384,138.51117,642.7134C138.49141,642.7302,138.47163,642.74713,138.45187,642.764L138.45253,642.764C138.44075,642.80286,138.42146,642.8401,138.39447,642.87366C138.33986,642.9416,138.26363,642.9818,138.18358,642.99255L138.18425,642.99255C134.62703,646.03235,131.16293,649.08344,128.97383,653.9455C126.70802,658.978,125.79857,665.9652,124.88288,673.0245C124.87644,673.0741,124.85869,673.1216,124.83098,673.1632C123.83584,674.6597,122.85318,676.138,122.2104,677.3222C121.57295,678.49664,121.269745,679.38257,120.960236,680.2877C120.95039,680.3165,120.93692,680.343,120.92051,680.36694L120.92099,680.36694C120.295654,681.90063,119.71057,683.3634,119.66881,684.74384C119.626724,686.13495,120.136566,687.46924,120.680695,688.87787L120.68069,688.87787L120.68295,688.88367C120.74635,689.04785,120.668396,689.23254,120.50667,689.30164C120.0594,689.4927,119.52188,689.7277,119.10708,689.74725C119.08849,689.7481,119.06961,689.7486,119.050514,689.7486C118.843124,689.7486,118.60963,689.6929,118.4431,689.49146L118.4431,689.49146C118.178246,689.17114,118.206635,688.5298,118.30006,687.891L118.2996,687.891C117.95392,688.21313,117.74168,688.49866,117.73277,688.7928C117.718094,689.2777,118.22864,689.9096,118.90794,690.7066C118.957596,690.7649,118.9852,690.83875,118.98593,690.9153L119.008575,693.2998C119.0099,693.43866,118.92317,693.5632,118.792435,693.6101L115.215866,694.8942L111.737686,709.6062L115.651825,713.2823C115.67652,713.2763,115.70213,713.2732,115.72823,713.2732C115.749016,713.2732,115.770096,713.27515,115.79126,713.2793C115.968216,713.31396,116.083595,713.4855,116.048965,713.6624C116.04881,713.6632,116.048645,713.66406,116.04849,713.66486L116.04893,713.66486C116.13533,713.78876,116.1264,713.9603,116.01886,714.0748C116.000244,714.09467,115.97973,714.11163,115.95787,714.12573L115.958305,714.12573C114.40791,722.04926,112.8622,729.97,111.50771,738.0079C111.09067,740.4828,110.69289,742.9617,110.28179,745.5234C109.33147,751.44543,108.31657,757.76984,106.866234,765.27057C106.3599,767.88916,105.799194,770.65753,105.23119,773.46185C103.468376,782.1652,101.62585,791.26434,101.01118,797.8201C100.2045,806.4238,101.51457,810.63055,102.83898,814.8435L102.83929,814.8435C102.84293,814.8539,102.84607,814.8645,102.84866,814.8753L102.84897,814.8753C102.8512,814.8824,102.853424,814.88947,102.85565,814.89655C102.88334,814.9846,102.87179,815.0756,102.830826,815.15076L102.83113,815.15076C102.503265,817.3143,102.18766,819.4511,102.20167,821.6204C102.21602,823.8426,102.57211,825.92413,105.27937,826.85345C106.33783,827.2168,107.75975,827.4073,109.22602,827.4073C110.160324,827.4073,111.11263,827.32996,112.00037,827.17065C113.43,826.9141,114.63287,826.4552,115.32477,825.818C116.716064,824.5366,116.192406,822.3472,115.46415,820.2727C115.3698,820.0039,115.27409,819.7421,115.18133,819.48834C115.09602,819.255,115.0127,819.02704,114.93698,818.8114C114.20915,816.73804,114.15314,815.71155,114.14246,814.7605L114.14288,814.7605C113.91124,814.27026,113.7919,813.66864,114.571434,812.8775C114.79548,812.65015,115.096115,812.40424,115.40181,812.1537C116.271454,811.4409,117.16491,810.6876,117.33057,809.8741L117.33057,809.874C117.41104,809.4789,117.32219,809.03107,117.114235,808.5109C116.944214,808.0857,116.707054,807.6413,116.45294,807.16595C116.19043,806.6749,115.91097,806.15295,115.69835,805.62115C115.0275,803.94324,115.03407,802.20953,115.5907,800.3073C116.14263,798.4212,117.24209,796.35126,118.31845,794.32184C118.32266,794.3139,118.3272,794.30615,118.33205,794.2986C120.80763,790.43805,123.26493,786.6046,124.88677,782.9871C126.50398,779.3799,127.29393,775.97815,128.12718,771.3789C128.96054,766.7792,129.83331,761.00543,130.70697,755.2255L130.70706,755.225L130.70734,755.2231C130.71306,755.1853,130.72565,755.14825,130.74445,755.1143C133.68558,749.8018,136.63127,744.481,138.84349,740.78973C140.98892,737.2099,142.4457,735.1605,143.87697,733.1648L143.8777,733.1648L143.74986,732.716C143.70049,732.5426,143.80101,732.362,143.97444,732.31256C144.0043,732.3041,144.03438,732.3,144.06396,732.3C144.20616,732.3,144.33696,732.39355,144.37785,732.5372L144.48149,732.90106L144.48221,732.90106C144.59831,732.99066,144.63817,733.14435,144.5876,733.2762L144.58832,733.2762L158.97957,783.8061L158.98262,783.81757L165.5442,810.50665C165.54713,810.5186,165.54942,810.5308,165.55098,810.543C165.76231,812.19073,165.96481,813.6301,167.50594,814.4391C169.13725,815.2955,172.25764,815.47156,175.50945,815.6469C175.55923,815.6496,175.60777,815.6637,175.65129,815.68805C180.03249,818.13995,184.29185,820.5103,187.99593,820.5103C188.26048,820.5103,188.5222,820.4982,188.78096,820.4732C190.21677,820.33435,191.57216,819.79376,192.6838,819.07104C194.60706,817.82074,195.6238,816.1645,195.38438,815.1956C195.2533,814.66516,194.71808,814.2214,193.8158,813.8131C193.04324,813.46356,192.08627,813.1763,191.08885,812.87744C190.08098,812.5755,189.0334,812.26227,188.1584,811.86633C185.40855,810.6221,184.39522,808.5813,183.42444,806.6392C183.38583,806.562,183.38072,806.4768,183.40358,806.4001L183.40468,806.4001L180.36916,800.33356C180.31416,800.22363,180.32555,800.0922,180.39857,799.99335C181.41423,798.6192,182.27238,797.41956,181.93246,796.0956L181.93248,796.0956C181.8728,795.8632,181.7741,795.6189,181.64323,795.3628C181.33148,794.75275,180.85916,794.11566,180.3629,793.4479C179.87222,792.78766,179.35756,792.0966,179.0099,791.41626C178.16078,789.7545,178.32243,788.1939,178.47227,786.73145L178.47285,786.73145C178.7913,779.27484,179.10844,771.8407,178.66609,765.0781C178.22475,758.33057,177.02681,752.24524,175.82277,746.1391L175.82072,746.12866L175.82153,746.12866C174.02478,739.4952,172.22997,732.869,170.31679,726.75494C168.4037,720.6411,166.3719,715.038,164.33699,709.42633C164.30775,709.3457,164.31145,709.2568,164.34724,709.1788C164.8608,708.06085,165.3054,707.0665,165.12721,706.08307C164.94637,705.0849,164.1203,704.0475,163.20367,702.9159L163.20457,702.9159C163.199,702.9153,163.19342,702.91473,163.18785,702.9141C163.00854,702.8952,162.87856,702.73444,162.89752,702.5552C162.91525,702.3875,163.05687,702.263,163.22176,702.263C163.23323,702.263,163.24484,702.2636,163.25652,702.26483C167.02003,702.66284,170.82686,703.0643,173.60045,703.8578C176.39507,704.6573,178.13841,705.8529,179.84761,707.02374C179.92606,707.0775,179.97717,707.1628,179.98761,707.2573C179.99805,707.35175,179.96675,707.44617,179.9019,707.5157L173.17192,714.73456L173.17294,714.73456C173.25208,715.3577,173.33583,715.9274,173.53416,716.4015C173.62817,716.6262,173.74539,716.8221,173.8947,716.98663C174.36784,717.50793,175.21573,717.7904,176.20177,718.0828L185.25479,707.9799C185.30952,707.9188,185.38524,707.8806,185.46686,707.8728C186.50221,707.7738,187.42657,707.6791,187.9846,707.3712C188.50331,707.085,188.7231,706.595,188.98543,705.9799C189.03793,705.8568,189.15804,705.78143,189.28572,705.78143C189.31802,705.78143,189.3508,705.78625,189.3831,705.7963C189.81963,705.93274,190.11343,706.0066,190.30872,706.0066C190.43254,706.0066,190.51677,705.97687,190.57265,705.9146C190.78886,705.6737,190.83376,704.94794,190.86555,703.9737C190.86894,703.8698,190.92159,703.77386,191.0073,703.7151C191.74013,703.21277,192.34515,702.7844,192.57005,702.23505C192.79472,701.6863,192.66226,700.96185,192.48984,700.095C192.47011,699.9957,192.49751,699.8929,192.56406,699.8166C192.62625,699.74536,192.71608,699.7048,192.81006,699.7048C192.81659,699.7048,192.82317,699.70496,192.82974,699.7054C193.17188,699.7261,193.47722,699.74066,193.74138,699.74066C194.27954,699.74066,194.64676,699.68005,194.80563,699.4865C195.02803,699.21545,194.9491,698.57654,194.76955,697.67194L194.77078,697.67194C194.75156,697.66174,194.73306,697.6495,194.7156,697.63513C194.57642,697.52057,194.55649,697.3148,194.67111,697.1756L220.1775,666.19836C220.23628,666.127,220.32257,666.0839,220.41496,666.0798C222.25644,665.9975,223.96486,665.9119,225.10533,665.1899C226.23225,664.47644,226.84607,663.111,227.50513,661.6121L227.50517,661.612L227.509,661.60333C227.54417,661.5233,227.6101,661.4607,227.69193,661.4296C228.36366,661.17456,228.87262,660.96576,229.11667,660.50616C229.37949,660.0112,229.37268,659.18427,229.35329,658.2161C229.35126,658.11475,229.39644,658.01825,229.47556,657.9548C230.80907,656.8864,231.89412,655.9833,231.96808,655.4197C232.00726,655.12103,231.65573,654.80804,230.7656,654.39954C230.56148,654.30585,230.34702,654.21423,230.12744,654.12054C229.96162,654.04974,229.88458,653.8579,229.95538,653.6921C230.0034,653.5796,230.10712,653.508,230.22061,653.4956L230.2222,653.4956L249.25378,629.5932C249.31784,629.51276,249.4129,629.47003,249.50937,629.47003C249.56993,629.47003,249.63104,629.4869,249.6854,629.5217L250.5996,630.1078L253.73415,626.27167C253.79814,626.19336,253.89192,626.15173,253.98718,626.15173C254.04477,626.15173,254.1029,626.16693,254.1553,626.1985L254.15529,626.1985C256.6132,627.67755,259.07492,629.1607,264.19385,633.964C266.27585,635.91754,268.79846,638.4213,271.06314,640.6691C272.81558,642.4084,274.39273,643.9722,275.49857,645.0217C273.2549,642.10443,268.23462,636.1266,264.6312,632.0799C259.85638,626.7178,257.7538,624.9507,255.64989,623.1814C255.58263,623.1248,255.541,623.0435,255.53445,622.9559C255.52788,622.86835,255.55692,622.78174,255.61499,622.71576L257.62674,620.4314L257.62863,620.4314C257.0093,619.29144,256.4009,618.22833,255.46744,617.46484C255.2546,617.29083,255.0224,617.13055,254.7738,616.981C253.92358,616.46967,252.90573,616.09735,251.84384,615.72253L251.84204,615.72253L249.77165,617.9672C249.70778,618.03644,249.62004,618.0723,249.53151,618.0723C249.46709,618.0723,249.40224,618.05334,249.34587,618.01434C246.58775,616.10535,243.83867,614.20276,240.74742,612.3437C238.83575,611.19403,236.79356,610.06116,234.53917,608.955C229.86795,606.663,224.44028,604.5603,222.42166,604.037 Z"/> </g> </g> </svg>